<svg width="482" height="2046" viewBox="0 0 482 2046" fill="none" xmlns="http://www.w3.org/2000/svg">
<path d="M279.378 2025.41C277.262 2023.64 274.108 2023.91 272.334 2026.03C270.56 2028.15 270.836 2031.3 272.952 2033.07C277.647 2037.01 281.483 2040.01 284.157 2042.02C285.495 2043.03 286.543 2043.8 287.263 2044.31C287.623 2044.57 287.901 2044.77 288.093 2044.9C288.188 2044.97 288.262 2045.02 288.314 2045.06C288.34 2045.08 288.361 2045.09 288.376 2045.1C288.383 2045.11 288.389 2045.11 288.394 2045.11C288.396 2045.12 288.398 2045.12 288.399 2045.12L288.402 2045.12V2045.12C288.403 2045.12 288.427 2045.09 291.235 2041L288.403 2045.12C290.679 2046.68 293.792 2046.11 295.356 2043.83C296.92 2041.56 296.343 2038.44 294.067 2036.88C294.066 2036.88 294.064 2036.88 294.061 2036.88C294.053 2036.87 294.039 2036.86 294.021 2036.85C293.983 2036.82 293.923 2036.78 293.842 2036.72C293.679 2036.61 293.43 2036.43 293.1 2036.19C292.439 2035.72 291.453 2035 290.179 2034.04C287.63 2032.12 283.931 2029.23 279.378 2025.41ZM238.927 1985.65C237.109 1983.57 233.95 1983.36 231.871 1985.18C229.793 1986.99 229.582 1990.15 231.4 1992.23C240.986 2003.19 250.236 2012.52 258.391 2020.16C260.407 2022.04 263.571 2021.94 265.458 2019.92C267.345 2017.9 267.24 2014.74 265.224 2012.85C257.282 2005.42 248.268 1996.33 238.927 1985.65ZM204.974 1940.19C203.503 1937.85 200.417 1937.15 198.079 1938.62C195.742 1940.09 195.039 1943.18 196.509 1945.51C203.767 1957.05 211.376 1967.66 218.974 1977.28C220.684 1979.45 223.829 1979.82 225.996 1978.11C228.164 1976.4 228.535 1973.26 226.824 1971.09C219.426 1961.71 212.025 1951.4 204.974 1940.19ZM179.152 1889.87C178.121 1887.31 175.208 1886.07 172.646 1887.1C170.085 1888.13 168.845 1891.04 169.876 1893.6C174.883 1906.04 180.553 1917.77 186.629 1928.77C187.964 1931.19 191.006 1932.07 193.423 1930.73C195.84 1929.4 196.717 1926.36 195.383 1923.94C189.488 1913.26 183.997 1901.9 179.152 1889.87ZM163.306 1835.69C162.801 1832.98 160.192 1831.19 157.478 1831.69C154.763 1832.19 152.97 1834.8 153.475 1837.52C155.919 1850.68 159.219 1863.28 163.18 1875.3C164.044 1877.92 166.871 1879.35 169.493 1878.48C172.115 1877.62 173.54 1874.79 172.677 1872.17C168.85 1860.55 165.664 1848.39 163.306 1835.69ZM153.649 1774.11C150.888 1774.1 148.636 1776.32 148.62 1779.08C148.582 1785.65 148.707 1792.21 149.006 1798.73C149.309 1805.34 149.838 1811.84 150.573 1818.22C150.89 1820.97 153.369 1822.93 156.112 1822.62C158.855 1822.3 160.823 1819.82 160.507 1817.08C159.797 1810.92 159.287 1804.65 158.995 1798.27C158.705 1791.93 158.583 1785.55 158.62 1779.14C158.636 1776.38 156.411 1774.13 153.649 1774.11ZM158.696 1716.15C155.962 1715.77 153.433 1717.67 153.047 1720.4C151.214 1733.39 149.912 1746.44 149.212 1759.45C149.064 1762.21 151.179 1764.56 153.936 1764.71C156.693 1764.86 159.049 1762.74 159.197 1759.99C159.881 1747.28 161.154 1734.52 162.949 1721.8C163.335 1719.07 161.43 1716.54 158.696 1716.15ZM170.688 1659.21C168.014 1658.52 165.287 1660.13 164.596 1662.8C161.339 1675.4 158.509 1688.18 156.172 1701.05C155.679 1703.77 157.482 1706.37 160.198 1706.87C162.915 1707.36 165.517 1705.56 166.011 1702.84C168.302 1690.22 171.08 1677.68 174.278 1665.3C174.969 1662.63 173.361 1659.9 170.688 1659.21ZM337.012 1645.74C334.376 1644.92 331.572 1646.39 330.749 1649.02C329.926 1651.66 331.396 1654.46 334.032 1655.29C348.803 1659.9 363.16 1659.53 375.426 1657.22C378.139 1656.71 379.923 1654.09 379.411 1651.38C378.899 1648.66 376.284 1646.88 373.57 1647.39C362.487 1649.48 349.849 1649.75 337.012 1645.74ZM429.153 1621.81C427.23 1619.83 424.064 1619.78 422.083 1621.71C417.948 1625.72 414.403 1628.81 411.906 1630.89C410.659 1631.93 409.674 1632.71 409.01 1633.23C408.678 1633.49 408.425 1633.68 408.261 1633.8C408.203 1633.85 408.156 1633.88 408.12 1633.91C408.083 1633.93 408.034 1633.97 407.974 1634.01C407.797 1634.12 407.522 1634.3 407.154 1634.52C406.417 1634.98 405.306 1635.64 403.866 1636.43C400.982 1638.02 396.792 1640.12 391.629 1642.14C389.058 1643.15 387.792 1646.05 388.801 1648.62C389.81 1651.19 392.711 1652.46 395.281 1651.45C400.912 1649.24 405.494 1646.95 408.685 1645.19C410.281 1644.31 411.534 1643.57 412.399 1643.04C412.832 1642.77 413.169 1642.56 413.404 1642.4C413.522 1642.33 413.615 1642.27 413.681 1642.22C413.713 1642.2 413.74 1642.18 413.76 1642.17C413.77 1642.16 413.779 1642.16 413.785 1642.15L413.797 1642.15L413.799 1642.14L411 1638L413.8 1642.14L413.883 1642.09L413.963 1642.03L411 1638L413.964 1642.03L413.965 1642.03C413.966 1642.03 413.967 1642.03 413.968 1642.02C413.97 1642.02 413.972 1642.02 413.975 1642.02C413.98 1642.02 413.986 1642.01 413.994 1642C414.01 1641.99 414.033 1641.98 414.061 1641.96C414.116 1641.91 414.195 1641.85 414.296 1641.78C414.498 1641.63 414.788 1641.4 415.159 1641.11C415.902 1640.54 416.969 1639.69 418.303 1638.58C420.97 1636.36 424.708 1633.09 429.049 1628.88C431.03 1626.96 431.077 1623.79 429.153 1621.81ZM188.602 1603.84C186.012 1602.88 183.135 1604.2 182.177 1606.79C177.7 1618.89 173.558 1631.3 169.823 1643.93C169.041 1646.58 170.552 1649.36 173.2 1650.15C175.848 1650.93 178.629 1649.42 179.412 1646.77C183.082 1634.35 187.154 1622.16 191.556 1610.26C192.514 1607.67 191.191 1604.8 188.602 1603.84ZM294.104 1611.77C292.53 1609.5 289.415 1608.93 287.146 1610.5C284.876 1612.08 284.312 1615.19 285.885 1617.46C294.956 1630.55 304.831 1639.93 315.025 1646.42C317.354 1647.9 320.445 1647.22 321.928 1644.89C323.411 1642.56 322.726 1639.47 320.396 1637.98C311.445 1632.28 302.503 1623.88 294.104 1611.77ZM463.15 1574.84C460.715 1573.54 457.686 1574.46 456.384 1576.89C449.976 1588.88 442.342 1599.32 435.026 1607.9C433.235 1610 433.486 1613.16 435.587 1614.95C437.688 1616.74 440.844 1616.49 442.636 1614.39C450.309 1605.39 458.386 1594.36 465.202 1581.61C466.504 1579.17 465.585 1576.14 463.15 1574.84ZM269.946 1559.73C269.117 1557.1 266.31 1555.64 263.676 1556.46C261.042 1557.29 259.579 1560.1 260.407 1562.73C264.898 1577 269.935 1589.31 275.393 1599.89C276.659 1602.34 279.674 1603.3 282.128 1602.04C284.582 1600.77 285.545 1597.75 284.279 1595.3C279.119 1585.3 274.289 1573.53 269.946 1559.73ZM211.987 1550.54C209.508 1549.33 206.512 1550.35 205.296 1552.83C199.68 1564.28 194.311 1576.22 189.273 1588.55C188.23 1591.11 189.457 1594.03 192.013 1595.07C194.569 1596.12 197.487 1594.89 198.531 1592.33C203.483 1580.21 208.758 1568.48 214.273 1557.23C215.49 1554.76 214.466 1551.76 211.987 1550.54ZM476.959 1518.83C474.201 1518.7 471.864 1520.84 471.74 1523.6C471.16 1536.53 468.327 1548.68 464.129 1559.86C463.159 1562.44 464.467 1565.33 467.052 1566.3C469.637 1567.27 472.519 1565.96 473.49 1563.37C478.006 1551.35 481.097 1538.17 481.73 1524.05C481.854 1521.29 479.718 1518.95 476.959 1518.83ZM257.011 1502.86C256.578 1500.13 254.016 1498.27 251.289 1498.71C248.562 1499.14 246.702 1501.7 247.135 1504.43C249.391 1518.66 252.029 1531.64 254.994 1543.48C255.665 1546.16 258.381 1547.79 261.06 1547.12C263.738 1546.45 265.365 1543.73 264.694 1541.05C261.808 1529.53 259.226 1516.83 257.011 1502.86ZM241.047 1500.16C238.73 1498.66 235.634 1499.32 234.132 1501.64C227.316 1512.16 220.644 1523.47 214.224 1535.43C212.918 1537.87 213.832 1540.9 216.265 1542.2C218.698 1543.51 221.729 1542.59 223.035 1540.16C229.333 1528.42 235.866 1517.35 242.523 1507.08C244.025 1504.76 243.364 1501.66 241.047 1500.16ZM470.76 1466.96C469.695 1464.41 466.766 1463.21 464.219 1464.28C461.671 1465.34 460.468 1468.27 461.533 1470.82C463.618 1475.81 465.515 1481.17 467.203 1486.91C469.026 1493.12 470.267 1499.18 471.005 1505.1C471.347 1507.84 473.845 1509.79 476.585 1509.45C479.325 1509.1 481.27 1506.61 480.929 1503.87C480.124 1497.41 478.773 1490.81 476.798 1484.09C475.013 1478.02 472.995 1472.31 470.76 1466.96ZM245.221 1439.89C242.466 1440.08 240.389 1442.47 240.581 1445.22C241.559 1459.24 242.826 1472.37 244.353 1484.67C244.418 1485.2 244.565 1485.69 244.775 1486.15C243.742 1488.29 244.36 1490.93 246.357 1492.37C248.597 1493.99 251.722 1493.48 253.337 1491.24C261.38 1480.09 269.499 1470.18 277.506 1461.75C279.407 1459.75 279.325 1456.59 277.323 1454.69C275.321 1452.78 272.157 1452.87 270.255 1454.87C264.586 1460.84 258.9 1467.47 253.253 1474.7C252.199 1465.15 251.295 1455.1 250.557 1444.53C250.364 1441.77 247.975 1439.69 245.221 1439.89ZM438.637 1422.65C436.468 1420.94 433.324 1421.31 431.614 1423.48C429.905 1425.65 430.278 1428.79 432.446 1430.5C440.49 1436.84 447.77 1445.15 453.992 1455.68C455.397 1458.05 458.463 1458.84 460.84 1457.44C463.217 1456.03 464.006 1452.97 462.602 1450.59C455.805 1439.09 447.731 1429.81 438.637 1422.65ZM323.424 1422.83C322.203 1420.35 319.206 1419.33 316.729 1420.55C311.418 1423.17 306.137 1426.06 300.914 1429.22C295.558 1432.46 290.125 1436.45 284.666 1441.11C282.566 1442.91 282.317 1446.06 284.109 1448.16C285.902 1450.26 289.058 1450.51 291.158 1448.72C296.281 1444.35 301.275 1440.69 306.087 1437.78C311.075 1434.76 316.104 1432.01 321.149 1429.52C323.626 1428.3 324.644 1425.3 323.424 1422.83ZM243.477 1380.54C240.715 1380.53 238.463 1382.75 238.446 1385.51C238.406 1392.05 238.477 1398.66 238.665 1405.37C238.858 1412.24 239.111 1418.94 239.423 1425.46C239.555 1428.22 241.898 1430.35 244.656 1430.21C247.414 1430.08 249.544 1427.74 249.412 1424.98C249.104 1418.53 248.852 1411.9 248.661 1405.09C248.476 1398.5 248.407 1391.99 248.446 1385.57C248.463 1382.81 246.238 1380.56 243.477 1380.54ZM374.109 1408.96C373.796 1406.22 371.319 1404.25 368.575 1404.56C356.952 1405.89 345.098 1408.89 333.298 1413.34C330.714 1414.32 329.409 1417.2 330.384 1419.79C331.358 1422.37 334.243 1423.67 336.826 1422.7C347.957 1418.5 359.006 1415.72 369.708 1414.5C372.451 1414.19 374.422 1411.71 374.109 1408.96ZM386.944 1403.91C384.186 1403.78 381.845 1405.91 381.714 1408.67C381.584 1411.43 383.714 1413.77 386.472 1413.9C397.848 1414.44 408.62 1416.99 418.479 1421.75C420.965 1422.96 423.954 1421.91 425.155 1419.43C426.356 1416.94 425.314 1413.95 422.828 1412.75C411.637 1407.34 399.527 1404.51 386.944 1403.91ZM247.453 1322.12C244.709 1321.81 242.234 1323.78 241.924 1326.52C240.481 1339.29 239.458 1352.39 238.907 1365.84C238.795 1368.6 240.94 1370.93 243.699 1371.04C246.458 1371.16 248.786 1369.01 248.899 1366.25C249.44 1353.03 250.445 1340.17 251.86 1327.65C252.17 1324.9 250.197 1322.43 247.453 1322.12ZM257.709 1264.47C255.015 1263.87 252.34 1265.56 251.735 1268.26C248.915 1280.83 246.478 1293.73 244.488 1307.01C244.079 1309.74 245.961 1312.28 248.691 1312.69C251.422 1313.1 253.968 1311.22 254.378 1308.49C256.331 1295.46 258.723 1282.79 261.492 1270.45C262.097 1267.75 260.403 1265.08 257.709 1264.47ZM273.935 1208.23C271.315 1207.36 268.484 1208.78 267.61 1211.4C263.532 1223.63 259.766 1236.19 256.389 1249.1C255.691 1251.77 257.29 1254.51 259.961 1255.21C262.632 1255.9 265.365 1254.3 266.063 1251.63C269.381 1238.94 273.083 1226.6 277.097 1214.56C277.97 1211.94 276.554 1209.11 273.935 1208.23ZM295.289 1153.65C292.752 1152.56 289.811 1153.73 288.721 1156.27C283.618 1168.14 278.726 1180.29 274.135 1192.79C273.182 1195.38 274.511 1198.25 277.103 1199.2C279.694 1200.16 282.568 1198.83 283.521 1196.24C288.044 1183.93 292.868 1171.94 297.908 1160.22C298.999 1157.68 297.826 1154.74 295.289 1153.65ZM320.389 1100.69C317.919 1099.45 314.915 1100.45 313.679 1102.92C307.898 1114.47 302.198 1126.26 296.679 1138.33C295.531 1140.84 296.636 1143.81 299.147 1144.96C301.659 1146.11 304.625 1145 305.773 1142.49C311.234 1130.54 316.882 1118.86 322.621 1107.4C323.857 1104.93 322.858 1101.93 320.389 1100.69ZM347.507 1048.75C345.067 1047.45 342.041 1048.38 340.747 1050.82C334.73 1062.17 328.63 1073.7 322.566 1085.45C321.301 1087.91 322.264 1090.92 324.718 1092.19C327.172 1093.45 330.187 1092.49 331.453 1090.04C337.488 1078.34 343.565 1066.85 349.582 1055.5C350.876 1053.07 349.946 1050.04 347.507 1048.75ZM374.541 996.753C372.075 995.511 369.068 996.503 367.826 998.97C362.074 1010.39 356.054 1021.9 349.883 1033.58C348.593 1036.02 349.526 1039.05 351.968 1040.34C354.409 1041.63 357.434 1040.69 358.725 1038.25C364.906 1026.55 370.961 1014.97 376.757 1003.47C377.999 1001 377.007 997.995 374.541 996.753ZM129.794 984.229C127.097 983.635 124.43 985.341 123.837 988.038C122.447 994.355 121.389 999.346 120.677 1002.76C120.321 1004.47 120.051 1005.78 119.87 1006.67C119.78 1007.11 119.712 1007.45 119.666 1007.68C119.643 1007.79 119.626 1007.88 119.614 1007.94C119.608 1007.96 119.604 1007.99 119.601 1008C119.599 1008.01 119.598 1008.02 119.598 1008.02C119.597 1008.02 119.597 1008.02 119.597 1008.02V1008.03C119.059 1010.73 120.818 1013.37 123.526 1013.9C126.15 1014.43 128.701 1012.79 129.348 1010.23L129.404 1009.97C129.404 1009.97 129.405 1009.97 129.405 1009.97C129.406 1009.97 129.407 1009.96 129.408 1009.96C129.411 1009.94 129.415 1009.92 129.42 1009.9C129.431 1009.84 129.448 1009.76 129.47 1009.65C129.514 1009.43 129.581 1009.1 129.67 1008.66C129.847 1007.79 130.113 1006.49 130.466 1004.8C131.171 1001.42 132.222 996.465 133.604 990.186C134.196 987.489 132.491 984.822 129.794 984.229ZM398.764 943.386C396.208 942.341 393.288 943.565 392.243 946.121C387.429 957.895 382.109 969.669 376.42 981.521C375.225 984.01 376.274 986.996 378.764 988.191C381.253 989.386 384.239 988.337 385.435 985.848C391.188 973.863 396.593 961.904 401.499 949.906C402.544 947.35 401.319 944.431 398.764 943.386ZM144.289 923.854C141.613 923.175 138.892 924.794 138.212 927.47C134.398 942.487 131.129 956.096 128.442 967.672C127.819 970.362 129.493 973.049 132.183 973.673C134.872 974.297 137.559 972.622 138.184 969.933C140.856 958.415 144.109 944.875 147.904 929.932C148.584 927.255 146.965 924.534 144.289 923.854ZM416.474 887.595C413.791 886.939 411.086 888.582 410.43 891.264C407.406 903.63 403.612 915.878 399.197 928.092C398.259 930.689 399.604 933.555 402.2 934.493C404.797 935.432 407.664 934.087 408.603 931.49C413.12 918.991 417.024 906.4 420.144 893.64C420.799 890.957 419.156 888.251 416.474 887.595ZM160.698 864.017C158.046 863.248 155.273 864.776 154.504 867.428C150.495 881.259 146.795 894.683 143.424 907.393C142.716 910.062 144.306 912.8 146.975 913.508C149.643 914.216 152.382 912.626 153.09 909.957C156.444 897.312 160.124 883.961 164.109 870.211C164.878 867.559 163.35 864.785 160.698 864.017ZM423.476 829.554C420.715 829.475 418.413 831.648 418.334 834.408C417.965 847.32 416.601 859.984 414.393 872.481C413.912 875.201 415.727 877.795 418.446 878.275C421.165 878.756 423.759 876.941 424.239 874.222C426.527 861.277 427.946 848.127 428.33 834.694C428.409 831.934 426.236 829.633 423.476 829.554ZM179.369 804.844C176.752 803.964 173.916 805.372 173.036 807.989C168.581 821.238 164.366 834.5 160.406 847.535C159.604 850.177 161.095 852.97 163.737 853.772C166.379 854.575 169.172 853.084 169.975 850.442C173.909 837.49 178.094 824.322 182.515 811.177C183.395 808.559 181.986 805.724 179.369 804.844ZM423.18 775.287C422.633 772.58 419.997 770.829 417.29 771.375C414.583 771.921 412.832 774.558 413.378 777.265C415.999 790.253 417.543 802.901 418.145 815.276C418.279 818.034 420.624 820.161 423.382 820.027C426.14 819.893 428.267 817.549 428.133 814.791C427.507 801.912 425.9 788.766 423.18 775.287ZM201.065 746.771C198.506 745.733 195.59 746.966 194.553 749.525C189.416 762.193 184.5 775.225 179.818 788.38C178.893 790.981 180.251 793.841 182.853 794.767C185.454 795.692 188.313 794.334 189.239 791.732C193.88 778.693 198.746 765.798 203.82 753.282C204.858 750.723 203.624 747.808 201.065 746.771ZM405.704 718.58C404.653 716.027 401.73 714.809 399.177 715.86C396.623 716.912 395.406 719.833 396.457 722.387C401.56 734.779 405.681 746.827 408.916 758.574C409.649 761.236 412.402 762.8 415.063 762.067C417.726 761.334 419.289 758.581 418.557 755.919C415.209 743.761 410.954 731.33 405.704 718.58ZM227.481 690.645C225.043 689.348 222.016 690.273 220.719 692.711C214.449 704.498 208.415 717.14 202.637 730.331C201.529 732.86 202.682 735.809 205.211 736.917C207.74 738.025 210.689 736.873 211.797 734.344C217.494 721.34 223.418 708.931 229.548 697.407C230.845 694.969 229.919 691.941 227.481 690.645ZM378.002 664.149C376.535 661.81 373.45 661.102 371.11 662.568C368.771 664.035 368.063 667.121 369.529 669.461C372.946 674.91 376.39 680.867 379.857 687.356C382.998 693.233 385.922 699.032 388.639 704.756C389.823 707.25 392.805 708.312 395.3 707.128C397.794 705.944 398.857 702.961 397.673 700.467C394.886 694.596 391.889 688.657 388.677 682.645C385.112 675.974 381.553 669.814 378.002 664.149ZM262.754 639.936C260.696 638.095 257.535 638.272 255.694 640.33C247.114 649.925 238.889 661.502 231.039 674.48C229.61 676.843 230.367 679.918 232.729 681.347C235.092 682.776 238.167 682.018 239.596 679.655C247.224 667.042 255.091 656.005 263.147 646.996C264.988 644.938 264.812 641.776 262.754 639.936ZM339.838 660.827C340.841 664.267 339.49 661.22 339.559 661.954C339.617 662.543 340.72 664.301 339.78 663.427C340.928 664.622 343.942 670.787 344.151 671.025C344.15 671.023 344.149 671.02 344.147 671.018C344.273 671.16 345.037 670.269 344.313 669.199C342.045 665.847 342.813 668.721 339.838 660.827ZM338.323 667.378C337.203 665.924 338.967 670.104 339.631 670.318C339.752 670.353 338.539 667.66 338.323 667.378ZM339.365 667.216C338.535 666.077 339.799 668.885 340.331 669.646C340.561 669.623 339.493 667.396 339.365 667.216ZM1.84375 3.59082C1.99265 3.88492 1.19891 2.34502 1.1875 2.32324C1.21881 2.38422 2.49557 4.88956 2.06152 4.04492C1.62259 3.18962 0.506561 0.995589 0.462891 0.910156C0.641632 1.26189 2.2103 4.34746 2.26367 4.45508C2.23135 4.39326 1.24731 2.46114 1.21094 2.38965C1.24139 2.45058 1.99216 3.9325 2.29199 4.53125C2.48398 4.91477 2.04678 4.05411 1.96094 3.88574C2.047 4.05651 3.88678 7.6987 3.97656 7.87793C4.09067 8.10582 3.78543 7.50918 3.7373 7.41699C3.81427 7.57241 4.27979 8.49519 4.34082 8.61816C4.27698 8.49849 2.02597 4.04373 1.99121 3.97461C2.02988 4.058 4.43445 8.84725 2.17578 4.36621C2.15222 4.31901 1.61935 3.24733 1.59961 3.20801C1.26169 2.53278 3.00818 6.04917 0.869141 1.74902C4.84406 9.7511 1.35931 2.74881 1.94336 3.93359C2.1687 4.39303 3.69748 7.48978 3.70801 7.5127C3.55453 7.21293 3.06946 6.22274 2.90137 5.88672C2.98328 6.0555 4.15308 8.44054 3.86328 7.86035C3.70264 7.53795 2.25513 4.59191 2.19141 4.46289C1.61633 3.29674 2.31552 4.72493 2.19043 4.47363C2.10614 4.30396 1.23596 2.5285 1.20898 2.47363C1.24603 2.5493 2.36252 4.83622 2.59961 5.32617C2.75211 5.64083 2.30493 4.72802 2.21191 4.53906C2.99597 6.15359 4.67694 9.58062 3.05273 6.28027C2.95367 6.07853 2.34634 4.82916 2.32715 4.79004C1.94873 4.01801 3.06851 6.32318 3.26562 6.7373C3.60242 7.4455 2.00171 4.13268 3.33301 6.88965C2.32861 4.82356 1.77219 3.6698 0.601562 1.25C3.84576 7.94997 4.96136 10.3292 1.38086 2.87988C2.5209 5.24866 2.3895 4.98925 2.72852 5.69629C2.93985 6.13827 4.59622 9.56791 3.82129 8.00293C3.72421 7.80597 2.72977 5.71543 3.03809 6.37109C5.41998 11.3572 3.112 6.5355 3.08301 6.47461C3.12714 6.5926 8.95297 18.8076 9.95508 20.9102C11.1163 23.356 12.1209 25.5435 12.373 26.0762C13.2033 27.8252 12.5305 26.3667 12.7217 26.7549C12.9189 27.1521 15.2487 32.1387 15.3672 32.3867C15.8319 33.3452 15.39 32.3575 15.4385 32.457C16.0206 33.644 19.1786 40.3296 20.0742 42.1973C20.0165 42.1246 18.2466 38.4027 19.3281 40.7539C20.5879 43.5004 20.7461 43.6172 20.7842 43.6865C26.7342 56.1921 32.6842 68.698 38.6328 81.2041C38.4742 81.0855 34.6561 72.8904 34.5518 72.7002C33.9787 71.639 40.5309 85.455 41.3682 87.1348C40.7377 85.8569 40.1074 84.5786 39.4785 83.2998C40.4208 85.5491 42.8583 90.3517 44.3203 93.5557C44.7816 94.5702 43.8526 92.7155 43.8311 92.6807C44.3349 93.8573 45.2442 95.6945 44.6465 94.2803C45.9258 97.1278 45.7932 96.6858 46.8232 98.8467C46.8752 98.9564 46.391 98.0538 47.1807 99.7744C47.5512 100.582 49.5733 104.861 49.8008 105.457C49.8922 105.702 48.6794 103.626 48.7158 103.275C46.4408 98.6567 48.0867 101.75 47.2285 99.9434C47.0967 99.6671 47.3099 100.347 45.2012 95.7725C45.4586 96.7177 48.0445 101.906 48.4512 102.815C49.2818 104.691 45.6046 97.0846 45.0625 95.6221C45.2523 96.3362 44.7914 95.0872 43.9834 93.3857C43.0998 91.5234 43.4488 92.352 42.9736 91.3428C41.6741 88.5821 42.2903 89.6874 41.1494 87.4463C42.4094 89.5569 39.3375 83.5386 38.4502 81.7803C39.8038 84.6856 41.1563 87.5916 42.5078 90.498C42.4185 90.3383 42.3285 90.1784 42.2393 90.0186C42.5994 90.7817 42.9601 91.5445 43.3203 92.3076C43.2742 92.1797 43.2278 92.0517 43.1816 91.9238C44.9572 95.9006 45.4927 96.821 45.6455 97.1416C47.5992 101.272 49.845 106.049 51.8105 110.229C52.1056 110.856 51.814 110.471 54.0322 115.008C54.7404 116.454 54.1658 115.043 54.9326 116.7C55.7067 118.866 55.8458 118.749 56.1357 119.363C56.9655 121.127 57.4221 122.231 57.498 122.395C58.514 124.578 60.0218 127.768 61.1387 130.166C61.1136 130.127 60.5343 129.055 61.2568 130.544C61.5176 131.089 64.1198 135.839 66.04 140.167C65.4946 139.064 64.9497 137.961 64.4053 136.857C65.0519 138.153 69.2891 147.366 68.1475 145.167C67.4508 143.817 66.0745 140.361 65.708 140.086C67.2018 143.113 75.0245 160.027 75.6914 161.318C75.7838 161.496 75.3322 160.345 75.458 160.589C75.5571 160.781 77.3547 164.653 77.624 165.152C77.7834 165.447 77.028 163.722 77.1182 163.845C77.1963 163.963 79.4977 168.764 79.5332 169.087C79.0135 167.884 77.4148 164.571 78.1572 166.354C78.253 166.584 78.8606 167.719 78.9766 167.998C80.0505 170.587 76.5251 163.006 75.9736 161.834C78.088 166.647 81.68 173.933 84.1846 179.482C85.3129 181.666 82.7625 176.119 84.0146 178.604C86.6149 183.752 84.5522 180.054 84.6172 180.219C85.139 181.56 87.6779 185.744 87.3281 185.927C88.2711 187.794 88.0293 187.159 89.2383 189.855C89.0479 189.517 88.857 189.177 88.667 188.838C89.8462 191.913 93.3397 197.921 93.165 197.429C92.6799 196.108 90.9645 192.929 90.8369 192.646C90.65 192.228 90.4756 190.903 88.0146 186.546C87.3821 184.576 91.5678 193.627 89.7949 189.442C91.0769 192.227 96.6605 203.524 97.3232 205.223C97.4002 205.425 96.703 204.648 98.1709 207.395C98.8687 208.698 97.3466 205.476 97.6963 206.056C98.776 207.844 110.801 233.48 113.09 238.347C113.239 238.661 113.28 238.499 113.426 238.809C113.876 239.762 115.377 243.303 116.23 244.984C114.375 241.545 117.61 248.41 118.456 250.145C119.741 252.776 119.843 252.524 120.424 253.648C122.669 257.979 125.465 265.03 127.51 268.244C127.001 268.268 130.529 274.062 131.86 276.835C132.901 279.008 134.11 282.31 132.539 279.46C134.342 283.208 136.136 287.205 137.779 290.745C138.051 291.33 137.805 290.462 138.265 291.462C138.305 291.553 138.233 291.745 138.623 292.604C141.846 299.712 140.506 296.141 141.216 297.417C141.613 298.131 141.895 298.664 142.093 299.06C140.168 294.94 137.969 290.178 137.37 288.909C138.175 289.847 141.643 298.038 142.838 300.348C142.879 300.426 142.91 300.062 142.95 300.144C142.951 300.145 142.951 300.148 142.952 300.149C143.385 301.024 145.992 306.656 145.242 305.604C145.041 305.321 143.814 302.74 142.378 299.67C142.734 300.515 142.258 299.992 142.317 300.14C143.066 301.959 145.309 306.215 146.066 307.743C146.238 308.092 146.105 308.128 146.132 308.186C146.824 309.574 146.902 308.824 147.224 310.441C148.865 312.761 145.032 305.657 145.554 306.027C145.958 306.32 153.551 322.555 153.17 322.696C153.235 322.734 153.39 322.933 153.66 323.361C154.262 324.315 156.368 328.842 156.67 329.654C156.719 329.792 156.339 329.917 156.413 330.081C156.598 330.495 159.495 335.865 160.258 338.03C159.68 336.944 159.101 335.857 158.524 334.771C161.702 341.488 161.101 340.505 159.934 338.32C159.88 338.209 159.815 338.107 159.763 338.001C158.864 336.309 157.738 334.126 157.69 334.099C157.528 334.035 162.838 345.458 162.147 343.098C162.05 342.769 159.406 337.569 160.882 340.06C161.141 340.496 162.673 343.918 162.784 344.082C163.527 345.179 160.261 337.675 160.938 338.45C161.551 340.363 162.771 342.602 163.686 344.69C164.101 345.64 164.024 345.964 164.075 346.081C164.845 347.831 164.582 346.765 164.851 347.344C164.995 347.655 166.186 351.265 166.463 350.334C171.352 361.754 167.503 353.649 164.279 346.755C165.099 349.032 167.217 353.242 168.072 355.179C168.379 355.874 167.99 355.566 168.498 356.744C169.543 359.172 175.154 370.45 176.616 373.389C175.827 371.53 176.304 371.952 176.955 373.365C177.605 374.777 176.745 373.749 176.842 374.037C176.947 374.349 180.212 380.876 180.692 381.994C178.454 376.971 179.209 377.98 181.232 382.183C181.01 381.54 180.786 380.897 180.562 380.255C181.641 382.771 184.461 387.787 185.035 389.268C185.124 389.5 184.546 388.795 184.596 388.925C185.106 390.219 187.332 394.379 187.358 394.611C187.38 394.805 186.352 393.074 186.59 393.788C186.64 393.939 187.739 395.557 188.491 397.315C188.77 397.967 188.399 397.678 188.463 397.843C189.008 399.233 188.954 398.281 190.067 400.764C190.883 402.583 191.201 404.082 192.484 406.519C188.211 398.549 191.633 405.333 193.123 408.813C193.362 409.371 192.785 409.079 194.503 412.267C191.857 404.98 195.784 414.081 196.656 415.909C196.706 416.008 196.961 415.925 197.39 416.82C197.424 416.896 197.213 416.869 197.595 417.708C201.221 425.68 199.011 420.529 199.883 421.952C200.255 422.559 201.845 426.522 202.329 427.562C202.441 427.799 202.562 427.605 202.991 428.529C203.752 430.166 204.259 431.72 204.754 432.805C204.813 432.93 205.091 432.801 205.968 434.884C206.215 435.47 206.421 436.162 205.956 435.388C204.418 432.813 202.439 427.463 200.738 424.535C199.191 421.863 203.318 430.66 203.533 431.12C203.611 431.287 202.936 429.506 203.786 431.235C204.513 432.713 205.323 435.671 206.473 437.84C206.561 438.007 207.801 439.571 207.79 439.482C207.772 439.4 206.574 436.635 206.877 436.97C206.915 437.015 207.729 438.742 207.924 438.924C208.162 439.147 209.565 439.369 209.769 439.725C210.285 440.638 209.752 440.143 210.061 440.746C210.721 442.042 213.207 446.436 212.909 446.771C212.529 446.03 212.149 445.288 211.769 444.547C213.725 448.752 212.717 447.047 212.93 447.675C213.158 448.35 213.399 448.009 214.102 449.404C214.255 449.709 216.992 455.634 216.809 455.61C215.476 452.236 215.642 453.646 215.563 453.501C215.265 452.942 215.146 452.096 214.776 451.331C212.172 445.949 214.403 451.572 213.705 450.345C213.466 449.921 213.243 448.952 213.145 448.77C212.825 448.18 212.568 448.296 212.396 447.882C211.997 446.916 212.875 447.837 212.859 447.754C212.682 446.801 210.838 443.641 211.426 445.887C210.702 444.723 211.103 444.344 210.452 443.46C209.16 441.7 210.635 444.567 210.947 445.387C212.065 448.329 212.643 449.08 214.479 453.119C215.14 454.574 215.715 456.401 216.019 457.077C216.209 457.506 218.916 461.078 217.684 461.837C218.538 463.325 220.542 465.33 221.26 466.944C221.902 468.393 221.225 468.17 221.27 468.312C221.338 468.531 222.193 470.245 222.404 470.864C222.651 471.59 222.313 471.335 222.754 472.461C223.852 475.264 224.296 474.956 224.459 475.219C226.348 478.275 224.996 477.199 225.279 477.944C225.545 478.642 230.227 487.872 230.981 489.934C230.702 489.082 230.422 488.23 230.142 487.379C231.127 488.662 231.344 490.433 231.909 490.186C231.155 490.921 233.149 493.589 233.548 494.49C233.704 494.845 233.538 494.895 233.738 495.337C234.52 497.066 236.469 500.871 236.83 501.842C238.385 506.036 232.979 496.029 232.565 495.228C233.34 496.847 237.443 506.13 235.024 502.128C234.652 501.509 234.518 500.149 234.361 499.774C233.303 497.244 233.852 499.369 233.728 499.196C233.517 498.893 233.102 497.085 232.858 496.675C232.778 496.539 232.882 497.626 231.769 495.264C231.997 496.586 235.365 503.109 235.699 504.021C235.818 504.345 234.217 502.741 237.55 508.102C237.455 508.068 237.36 508.034 237.265 508C238.719 511.185 240.174 514.37 241.628 517.556C241.619 517.135 241.088 515.205 242.072 517.479C242.638 518.786 241.857 518.003 241.9 518.123C242.349 519.331 252.038 539.784 253.855 543.778C254.474 545.136 255.945 549.048 256.074 549.34C256.847 551.074 259.874 557.066 260.399 558.301C260.726 559.071 260.086 558.503 260.416 559.173C260.723 559.795 260.713 558.998 260.812 559.178C261.644 560.674 266.737 572.633 268.324 575.287C267.444 573.62 264.066 564.804 264.354 564.872C264.411 564.915 265.594 566.853 265.684 567.333C266.273 567.91 266.617 570.724 267.388 571.965C267.475 572.103 267.647 571.299 268.828 573.606C269.236 574.402 269.879 576.698 271.271 578.636C272.527 581.822 280.74 597.762 280.764 599.124C280.747 599.161 279.51 596.972 280.027 598.616C280.715 600.806 280.772 598.504 281.975 600.857C282.158 601.216 285.182 607.907 285.23 608.164C285.65 610.442 282.717 604.734 282.692 604.839C282.636 605.12 284.801 610.001 284.93 610.182C285.055 610.347 283.906 606.06 285.86 610.931C285.523 610.429 285.186 609.927 284.849 609.426C285.728 611.736 286.31 611.708 286.593 612.233C287.088 613.151 287.339 614.245 287.852 615.424C282.164 617.895 276.644 621.308 271.311 625.486C269.137 627.19 268.756 630.332 270.459 632.506C272.162 634.679 275.305 635.06 277.479 633.357C282.352 629.539 287.215 626.576 292.069 624.497C292.263 625.643 293.468 627.581 293.952 628.882C294.669 630.811 294.638 634.713 295.509 632.606C294.384 629.894 293.259 627.181 292.132 624.471C292.553 624.291 292.974 624.117 293.396 623.95C294.194 625.815 295.325 628.303 295.568 628.763C296.643 630.791 296.25 628.751 297.179 630.866C295.92 629.84 298.82 636.231 299.195 635.596C298.927 636.824 301.993 641.956 303.204 644.482C303.967 646.077 305.196 649.492 305.471 649.984C305.806 650.582 306.196 650.156 306.829 651.221C307.011 651.525 308.224 655.029 310.101 657.7C310.464 658.218 311.848 658.997 311.557 657.845C311.055 655.871 308.784 652.794 309.287 652.598C309.828 652.397 311.694 657.128 312.347 658.328C315.362 663.863 314.362 660.306 314.597 660.364C315.186 660.542 316.655 663.651 316.756 663.767C317.175 664.22 316.45 661.861 316.683 661.701C316.989 661.501 319.012 664.198 318.797 663.464C318.485 662.413 316.675 659.906 316.614 659.719C315.84 657.294 318.083 660.031 318.867 660.703C319.106 660.905 318.794 659.779 318.931 659.978C321.025 663.011 318.207 661.197 319.365 663.332C320.397 665.234 319.687 662.486 319.748 662.54C319.826 662.624 320.976 664.939 321.329 665.218C321.505 665.348 319.54 658.817 320.089 658.854C320.932 660.833 321.775 662.813 322.617 664.792C323.255 664.66 321.491 662.092 321.409 661.774C321.245 661.138 322.315 662.608 322.46 662.45C322.553 662.348 322.04 660.267 323.038 661.89C323.383 662.448 323.587 663.878 325.036 665.814C321.92 658.116 324.753 663.113 325.063 663.233C325.369 663.345 324.099 659.566 326.131 663.914C327.325 663.552 326.433 663.647 326.024 662.327C325.524 660.711 327.593 663.993 324.619 658.653C325.285 658.712 327.422 663.126 327.579 663.341C327.715 663.521 327.486 662.42 327.744 662.725C330.784 666.351 328.926 663.747 330.156 664.623C330.27 664.709 332.438 668.472 331.059 665.465C328.539 659.981 326.692 658.085 327.791 656.405C330.461 660.06 331.871 665.397 332.456 666.621C333.357 668.49 332.72 666.409 332.923 666.591C332.994 666.661 333.762 668.264 333.801 668.278C335.574 668.818 330.259 661.145 329.169 658.438C329.695 659.047 330.223 659.656 330.75 660.265C330.283 659.315 329.816 658.366 329.35 657.417C331.964 661.744 329.566 657.507 329.96 655.907C330.049 655.55 331.167 658.688 330.067 655.018C331.459 657.436 331.257 656.545 332.121 658.932C332.476 658.674 330.355 653.399 329.54 651.306C333.542 658.145 330.094 654.826 333.926 660.554C334.017 661.924 332.641 658.966 332.682 659.242C332.827 660.236 334.289 662.008 334.501 664.918C334.533 665.392 333.192 663.984 334.451 666.432C334.592 666.703 335.811 668.05 335.835 668.016C336.071 667.638 335.164 666.153 335.272 666.017C335.377 665.892 336.164 667.651 336.207 667.646C336.659 667.486 335.644 666.123 335.886 666.272C336.411 666.6 340.474 672.354 336.102 664.378C339.027 671.356 336.068 665.475 334.927 662.759C334.635 662.067 334.803 661.77 334.408 660.773C333.901 659.491 333.053 658.116 332.778 657.458C332.484 656.752 335.042 660.33 332.022 654.813C334.06 657.373 335.986 662.726 337.826 665.319C341.55 670.546 336.854 660.869 336.424 659.828C336.31 659.551 337.105 660.272 337.036 660.085C336.918 659.775 333.988 654.418 333.993 653.742C334 653.07 334.996 655.738 335.375 655.763C335.629 655.772 332.621 649.05 334.573 652.531C335.921 654.931 337.436 659.836 338.682 660.169C336.907 656.537 335.131 652.905 333.354 649.274C334.686 651.083 336.02 652.891 337.357 654.696C335.38 650.612 333.223 647.304 331.705 643.246C337.477 651.936 330.979 639.861 331.027 639.659C331.08 639.582 333.78 642.786 334.235 643.292C332.891 639.927 327.971 630.117 331.95 635.308C331.184 634.389 330.44 631.616 330.496 631.619C331.107 631.717 333.675 637.312 333.613 636.222C333.542 634.958 332.149 633.83 331.369 632.22C330.066 629.525 329.556 627.824 329.299 626.479C329.391 626.538 329.484 626.596 329.581 626.649C338.614 631.624 348.126 640.071 358.015 652.844C359.705 655.027 362.846 655.427 365.029 653.737C367.213 652.047 367.612 648.906 365.922 646.723C355.486 633.243 344.99 623.719 334.405 617.89C331.999 616.565 328.979 617.43 327.636 619.819C327.266 619.037 326.789 618.136 326.168 617.076C326.334 617.198 326.501 617.321 326.668 617.442C321.857 608.656 317.051 599.867 312.251 591.075C311.088 587.279 306.597 577.872 304.125 573.384C303.627 572.48 300.923 568.179 300.684 567.866C300.24 567.297 302.016 570.755 300.982 569.308C300.763 568.997 296.622 561.495 297.261 561.859C297.751 562.688 298.978 565.434 299.292 565.827C301.505 568.58 288.669 545.473 288.289 544.194C288.674 544.656 289.06 545.118 289.445 545.579C288.609 544.134 287.774 542.687 286.938 541.241C287.158 541.885 287.377 542.53 287.596 543.174C286.636 541.511 285.5 539.198 284.577 537.672C284.427 537.425 284.502 538.226 284.168 537.625C283.835 537.023 284.274 536.951 283.847 536.047C283.364 535.032 280.697 530.618 279.871 529.04C276.783 523.139 273.847 517.098 270.574 511.273C273.528 517.496 270.011 511.496 269.226 509.73C269.053 509.339 269.751 509.067 266.349 503.041C264.188 499.211 265.148 503.263 262.193 496.548C265.479 501.206 262.843 496.329 260.795 492.413C260.442 491.738 257.466 486.348 256.223 483.932C255.798 483.105 255.465 481.688 254.896 480.595C254.503 479.842 254.022 479.363 253.441 478.245C250.73 473.033 248.037 467.92 245.222 462.748C246.013 466.194 243.613 460.536 243.443 460.31C242.569 459.181 245.466 464.819 244.157 462.671C242.547 459.558 240.935 456.445 239.323 453.333C240.766 455.826 238.216 449.633 237.379 448.674C238.32 448.801 229.309 434.85 228.37 432.509C228.173 432.022 230.107 434.886 226.238 427.932C225.819 427.18 225.771 427.566 225.579 427.158C225.465 426.912 225.333 425.149 224.167 423.782C223.743 423.284 225.228 427.092 221.218 419.096C223.522 421.928 215.759 407.958 214.233 405.434C214.59 405.911 214.948 406.389 215.306 406.866C213.724 404.41 213.687 403.842 213.369 403.27C212.09 400.961 210.188 397.859 209.06 395.677C207.739 393.124 208.104 392.93 206.393 390.04C206.846 390.702 207.3 391.365 207.754 392.026C206.65 389.991 205.547 387.955 204.444 385.919C206.466 390.894 203.883 384.913 203.689 384.523C203.387 383.91 203.649 384.877 203.138 383.853C203.087 383.746 203.352 383.803 202.547 382.234C200.863 378.955 200.904 379.584 200.183 378.215C200.118 378.089 200.514 378.444 199.301 376.063C195.443 368.492 199.196 376.162 199.325 376.463C199.493 376.855 197.451 374.622 201.063 380.884C199.854 378.779 199.436 378.714 199.301 378.477C199.18 378.262 197.269 374.529 197.171 374.317C196.311 372.441 197.362 373.944 197.212 373.571C197.086 373.265 194.462 368.92 194.515 367.569C192.824 365.708 194.657 369.055 196.463 372.69C196.621 373.27 194.434 369.388 194.323 369.176C191.646 364.086 193.587 366.674 193.294 365.417C193.138 364.757 191.73 362.841 193.151 364.549C190.751 359.915 191.996 362.828 191.804 362.549C191.514 362.124 190.777 360.453 190.654 360.258C190.475 359.973 190.879 361.073 190.212 359.928C190.101 359.733 189.347 357.736 190.747 360.105C188.994 356.877 189.338 357.042 188.346 356.146C187.936 353.525 187.031 354.75 186.523 353.891C185.176 351.606 186.133 351.983 186.1 351.846C185.836 350.9 182.201 344.522 181.437 342.873C181.35 343.718 184.151 348.015 184.602 349.062C186.098 352.559 181.887 344.434 182.638 347.141C182.246 346.044 181.853 344.947 181.459 343.852C180.128 342.146 181.382 344.881 178.848 339.768C178.705 338.798 180.682 343.361 180.448 342.364C180.309 341.775 178.796 338.837 178.835 338.742C178.894 338.651 180.185 341.336 180.098 340.855C179.899 339.802 174.533 330.292 178.259 337.711C177.181 335.661 176.068 334.881 175.306 333.018C174.81 331.815 178.993 337.892 173.724 328.271C173.359 328.195 175.696 332.183 175.733 332.3C175.783 332.463 174.805 332.017 174.708 331.903C174.373 331.489 169.465 321.436 168.078 319.484C168.84 320.149 164.195 311.968 163.816 311.013C163.717 310.76 164.385 311.562 164.271 311.295C163.544 309.627 160.905 305.451 159.835 303.437C158.638 301.187 158.949 301.388 158.884 301.263C158.351 300.274 158.658 301.121 158.339 300.515C157.856 299.597 154.512 293.304 154.367 292.975C154.328 292.882 155.048 293.815 154.358 292.427C154.239 292.186 154.104 292.442 152.051 288.327C149.574 283.372 154.109 291.598 153.258 289.452C151.278 286.464 151.644 286.409 151.168 285.569C151.002 285.279 149.577 283.21 148.333 280.812C149.196 282.548 150.059 284.284 150.921 286.02C149.986 284.357 148.315 281.055 147.531 279.691C147.149 279.027 147.232 279.689 146.463 278.215C146.301 277.901 146.159 276.406 147.963 280.376C148.31 280.591 147.222 278.818 146.824 277.941C146.765 277.808 146.801 277.148 146.038 276.157C145.854 275.92 146.466 279.201 143.241 271.555C143.138 271.31 143.679 272.073 143.581 271.833C143.513 271.667 142.483 269.823 142.388 269.605C142.292 269.386 142.887 270.229 142.777 269.966C142.214 268.617 140.855 267.158 142.293 269.8C141.766 268.94 141.241 268.078 140.715 267.218C141.566 267.993 140.076 265.772 139.438 264.536C135.349 256.617 138.355 261.784 137.756 260.373C136.787 258.102 137.084 260.056 135.55 256.733C135.408 256.427 137.72 260.214 133.546 252.646C134.132 253.778 134.718 254.911 135.304 256.043C134.636 255.554 133.177 251.961 133.041 251.695C131.499 248.675 132.458 250.758 130.265 246.226C130.069 245.821 129.533 244.993 129.122 244.124C127.414 240.522 131.679 248.727 131.926 248.887C132.023 248.921 127.375 240.196 127.18 239.895C126.374 238.677 129.234 243.903 128.544 242.981C128.293 242.641 121.777 230.055 120.388 227.57C118.784 224.704 117.712 223.589 118.134 223.355C117.277 222.748 117.185 221.88 116.985 221.51C114.576 217.041 114.569 217.034 112.575 213.166C112.135 212.313 111.634 211.656 111.496 211.345C111.416 211.164 111.719 211.425 111.307 210.549C110.731 209.332 106.819 202.246 106.47 201.746C106.121 201.25 108.034 204.782 107.584 204.203C106.217 201.636 104.946 199.154 103.569 196.569C102.997 195.496 103.211 196.087 102.965 195.623C102.859 195.423 100.974 191.682 101.081 191.82C101.343 192.164 107.342 203.648 105.888 200.561C105.606 199.965 104.342 197.996 104.732 198.215C99.271 187.997 93.8163 177.774 88.3701 167.548C91.335 173.505 94.9516 180.07 98.1914 186.243C98.6353 187.09 100.161 189.934 99.874 189.642C97.0855 184.409 93.7023 177.862 90.9873 172.856C90.9005 172.696 91.1249 173.33 90.7939 172.733C90.1758 171.616 88.3797 167.875 88.0186 167.273C87.9552 167.172 88.9438 169.317 88.5391 168.717C87.5026 167.173 87.6819 166.56 86.9375 165.159C86.3592 164.076 82.3424 156.871 81.501 154.997C80.6047 153.007 84.3994 160.335 84.2178 159.748C81.7116 154.756 78.9655 149.804 76.5166 145.127C76.4745 145.046 76.9218 145.722 76.3828 144.677C75.443 142.856 75.0912 142.429 74.6104 141.555C74.0918 140.611 72.3311 137.237 72.0586 136.804C72.0268 136.756 72.2871 137.478 72.3389 137.584C73.0698 139.07 73.4706 139.529 73.543 139.662C73.8118 140.161 74.0221 140.679 74.2656 141.135C74.6667 141.885 74.9304 142.278 75.458 143.27C75.8221 143.954 75.3864 143.336 75.7383 143.995C75.8689 144.241 77.4489 146.75 77.3682 147.101C77.3355 147.21 66.0188 125.837 64.9395 123.669C65.9248 125.494 66.9112 127.319 67.8984 129.144C65.8871 125.442 63.6719 120.896 63.2998 120.679C56.0285 106.856 48.7637 93.0311 41.5039 79.2031C40.1982 76.7389 40.8231 78.1343 38.7217 74.0566C39.2967 75.0945 39.873 76.1331 40.4502 77.1699C39.3383 75.0975 34.4739 65.8831 33.7061 64.3799C33.6066 64.1854 33.5294 63.8847 32.3242 61.5771C31.2548 59.5295 31.0374 59.2219 30.4561 58.1318C29.9684 57.2172 29.4403 56.1801 29.2949 55.9082C29.1836 55.7001 29.1141 55.6296 28.8467 55.1289C28.0021 53.5461 28.7442 54.799 27.8408 53.2607C28.0386 53.6462 28.236 54.0324 28.4336 54.418C27.4188 52.5054 26.0182 49.8994 27.4746 52.7354C27.7247 53.2225 27.5312 52.7947 27.7197 53.1562C35.1178 67.3579 29.1589 56.0434 26.6035 51.0479C25.9045 49.7856 22.1973 42.6172 22.0645 42.377C21.885 42.0505 22.4999 43.2862 21.6465 41.6885C21.4659 41.3493 16.5039 31.7623 18.2646 35.2275C18.6278 35.9434 21.0177 40.5353 21.5918 41.6445C20.1866 39.0642 17.0952 32.9165 16.7324 32.2305C15.289 29.4615 19.4512 37.5763 16.2119 31.332C13.7225 26.5305 16.0846 31.0245 15.1396 29.1729C14.6057 28.1319 11.7635 22.7111 11.8701 22.8438C10.9053 20.9796 11.4542 22.0733 11.335 21.8467C11.2176 21.6218 9.3212 17.951 8.69824 16.7627C8.62329 16.6196 8.84668 17.0781 8.76855 16.9297C8.61517 16.6373 6.7905 13.1083 6.71387 12.959C6.75494 13.0341 7.09317 13.6694 6.93457 13.3594C6.72638 12.953 4.95895 9.55441 4.8623 9.36426C4.98608 9.59793 6.88568 13.2549 6.55273 12.5947C5.54404 10.6601 3.9079 7.504 3.24512 6.22559C3.40747 6.53924 4.38565 8.41528 4.72559 9.06641C4.57382 8.7527 2.47083 4.73041 3.18457 6.1084C2.73087 5.2324 3.04391 5.82814 2.78906 5.33496C2.72189 5.2051 2.0722 3.96301 1.94727 3.72266C1.96497 3.75617 2.60031 4.96488 2.4707 4.71484C2.22797 4.24699 0.254639 0.484101 0.0927734 0.174805C-0.360931 -0.6917 1.24634 2.37931 1.37891 2.63672C1.3689 2.61915 0.0332031 0.0638311 0.0107422 0.0195312C0.0739746 0.141062 1.13965 2.18699 1.27246 2.44434C0.897736 1.72518 0.523529 1.0056 0.149414 0.286133C1.59204 3.06403 4.26129 8.20238 4.94141 9.53125C2.82458 5.44322 0.604797 1.16865 0.573242 1.10938C0.591492 1.14599 1.42026 2.75675 1.4541 2.82422C1.31693 2.562 0.0513 0.0984519 0 0L1.84375 3.59082ZM339.86 659.969C339.857 660.629 342.704 666.546 342.973 666.235C343.203 665.957 340.331 660.889 339.86 659.969ZM328.776 658.907C327.68 657.851 330.705 665.057 331.788 666.092C331.306 664.594 329.542 661.659 329.042 660.327C328.986 660.173 330.403 660.467 328.776 658.907ZM334.196 659.552C333.968 659.57 335.036 661.805 335.162 661.982C335.989 663.123 334.726 660.314 334.196 659.552ZM323.446 656.515C323.704 655.377 324.268 657.101 324.652 657.551C325.003 657.963 325.546 658.077 325.854 659.215C325.05 658.316 324.247 657.415 323.446 656.515ZM307.464 646.884C307.552 646.591 308.657 648.471 308.787 648.948C308.988 649.694 307.327 647.361 307.464 646.884ZM334.87 644.465C334.671 644.5 336.076 647.321 336.161 647.439C337.129 648.773 335.482 645.389 334.87 644.465ZM332.799 635.429C334.207 639.278 332.689 635.894 332.355 635.929C331.002 636.094 335.404 640.473 336.108 642.392C336.205 642.657 334.871 640.99 335.102 641.684C335.85 643.946 341.034 649.532 337.086 642.728C337.087 642.729 337.087 642.731 337.088 642.732C336.06 640.961 336.359 642.223 336.306 642.145C333.862 638.494 335.048 639.193 334.809 638.552C334.295 637.175 333.616 637.776 332.799 635.429ZM341.012 641.833C339.929 640.63 342.462 645.232 341.923 643.488C341.897 643.412 341.056 641.883 341.012 641.833ZM314.701 620.452C319.686 632.302 321.829 641.508 319.541 642.645C316.99 643.91 309.787 634.727 302.582 621.394C305.694 620.894 308.805 620.769 311.915 621.031C312.918 621.116 313.876 620.896 314.701 620.452ZM301.322 637.803C302.234 638.631 304.183 643.57 303.343 642.527C303.226 642.374 301.656 638.468 301.322 637.803ZM333.805 635.275C333.686 635.125 334.138 637.908 335.062 638.291C335.77 638.581 334.106 635.665 333.805 635.275ZM299.25 634.784C298.584 634.147 297.403 630.69 297.779 631.188C297.892 631.339 299.601 635.117 299.25 634.784ZM292.436 628.088C292.383 629.143 294.368 632.531 293.811 630.93C293.655 630.486 292.761 628.834 292.436 628.088ZM295.773 625.581C296.363 625.854 297.124 628.218 297.817 629.451C297.345 629.226 296.221 626.629 295.773 625.581ZM294.526 625.145C295.129 626.363 296.402 628.753 295.712 628.17C295.641 628.094 294.34 625.242 294.526 625.145ZM294.448 624.377C295.14 624.757 295.848 626.944 296.489 628.246C295.894 627.972 295.146 625.615 294.448 624.377ZM290.249 583.604C293.148 582.167 302.054 594.218 310.143 610.521C310.209 610.655 310.275 610.79 310.341 610.924C306.123 610.78 301.975 611.194 297.902 612.11C290.971 597.347 287.567 584.934 290.249 583.604ZM281.383 601.991C280.401 600.735 282.688 605.46 282.205 603.689C282.177 603.602 281.426 602.051 281.383 601.991ZM274.952 588.154C274.741 588.288 275.895 590.279 276.236 591.082C276.384 590.754 275.386 588.93 274.952 588.154ZM273.024 583.316C272.91 583.169 271.473 582.383 272.886 584.726C273.932 586.455 274.048 584.652 273.024 583.316ZM265.371 567.242C265.635 567.489 265.712 567.485 265.684 567.333C265.586 567.238 265.485 567.197 265.371 567.242ZM262.457 560.953C261.748 558.57 263.844 563.079 263.597 563.175C263.5 563.204 262.488 561.054 262.457 560.953ZM253.975 543.281C254.12 543.127 257.168 549.665 257.141 550.229C256.757 549.146 253.851 543.436 253.975 543.281ZM284.273 536.249C284.094 535.139 281.471 531.142 281.734 531.954C281.806 532.156 284.278 536.683 284.273 536.249ZM280.272 529.998C280.305 530.901 277.327 525.466 278.379 526.765C278.613 527.053 279.906 529.311 280.272 529.998ZM247.303 528.814C246.587 527.809 245.882 525.689 246.365 526.369C246.474 526.524 247.483 528.801 247.303 528.814ZM240 512.442C241.288 513.728 241.632 517.436 240.576 514.878C240.475 514.628 239.94 512.386 240 512.442ZM238.596 510.519C238.578 510.434 239.252 510.887 239.313 511.02C240.226 513.045 238.926 511.896 238.596 510.519ZM236.352 505.13C236.424 504.218 237.667 507.832 238.074 508.449C238.075 508.451 238.075 508.453 238.075 508.454C238.199 508.636 237.627 505.042 239.095 509.956C237.843 507.568 238.949 510.186 238.854 510.194C238.579 510.208 236.876 505.991 236.352 505.13ZM267.05 505.479C266.755 504.7 268.555 507.529 268.293 507.655C268.204 507.685 267.091 505.585 267.05 505.479ZM236.324 494.478C236.713 495.031 239.562 501.277 238.812 500.483C238.546 500.2 237.115 496.507 237.014 496.349C236.865 496.115 237.079 497.415 236.237 495.481C236.4 495.534 236.193 494.288 236.324 494.478ZM235.006 498.707C234.969 498.658 234.762 498.898 234.782 498.967C235.314 500.707 235.937 499.982 235.006 498.707ZM235.365 495.61C235.258 495.023 236.188 496.384 236.419 497.053C236.48 497.23 235.503 496.369 235.365 495.61ZM229.935 490.391C229.574 489.848 230.322 492.059 230.194 491.873C229.926 491.466 229.733 491.133 229.598 490.857C230.398 492.764 231.271 494.723 231.414 494.884C232.085 495.635 230.751 493.073 230.736 493.004C230.715 492.864 232.408 494.107 229.935 490.391ZM233.772 492.116C233.372 490.875 235.123 493.318 235.34 494.729C235.451 495.454 233.842 492.33 233.772 492.116ZM230.629 491.348C230.989 492.037 232.168 494.679 232.312 494.716C232.529 494.744 231.141 491.38 230.629 491.348ZM233.942 490.572C233.64 489.942 233.609 489.103 233.815 489.379C235.263 491.316 234.715 492.186 233.942 490.572ZM228.976 488.407C227.55 485.693 228.339 487.819 229.384 490.341C229.111 489.511 229.454 489.318 228.976 488.407ZM230.21 486.475C230.501 486.499 231.565 489.462 231.174 488.917C230.925 488.57 230.031 486.466 230.21 486.475ZM231.915 487.148C231.886 486.447 232.35 487.455 232.608 487.765C234.191 489.652 233.004 488.975 231.915 487.148ZM226.376 482.084C226.531 482.994 227.872 485.591 228.501 486.708C228.392 485.765 227.031 483.375 226.376 482.084ZM228.728 479.262C228.766 478.972 229.173 479.993 229.562 480.643L229.752 480.971C230.262 481.87 231.143 483.574 231.513 484.927C230.584 483.039 229.655 481.15 228.728 479.262ZM226.886 480.573C226.205 478.479 228.212 482.52 228.574 483.931C228.315 483.34 226.932 480.715 226.886 480.573ZM227.027 479.944C226.865 479.644 224.334 474.613 225.097 475.516C225.353 475.824 229.808 485.088 227.027 479.944ZM227.037 478.572C226.72 478.106 225.134 474.326 225.866 475.489C226.502 476.498 227.554 479.329 227.037 478.572ZM251.622 475.35C252.766 478.006 248.61 470.362 250.114 472.58C250.191 472.695 251.567 475.222 251.622 475.35ZM219.062 467.505C218.931 467.649 220.397 470.494 220.698 471.229C221.083 472.169 220.291 471.191 221.067 472.696C221.555 473.642 221.785 472.871 221.904 473.061C222.005 473.223 223.307 476.728 223.181 475.158C223.182 475.159 223.183 475.161 223.185 475.162C223.145 474.706 221.916 472.289 221.595 471.757C221.539 471.666 221.364 472.268 220.873 471.147C220.479 470.248 221.48 471.386 220.607 469.687C219.727 467.97 220.55 470.431 220.462 470.296C220.341 470.104 219.243 467.316 219.062 467.505ZM246.021 464.633C246.334 465.251 247.872 467.917 247.798 468.003C247.669 468.124 245.925 465.072 246.021 464.633ZM217.508 461.706C216.729 460.247 217.147 461.85 217.713 462.796C217.761 462.873 218.195 462.992 217.508 461.706ZM214.847 455.275C214.721 455.018 212.107 449.227 212.821 451.581C212.94 451.976 216.963 460.185 217.504 461.245C218.049 461.483 216.05 458.12 215.681 457.242C215.616 457.087 215.861 456.844 215.489 455.993L215.488 455.99C215.348 455.673 214.902 455.383 214.847 455.275ZM208.173 443.704C208.225 444.364 209.119 446.096 209.689 447.281C209.638 446.62 208.744 444.889 208.173 443.704ZM208.093 442.889C207.966 443.031 209.13 445.584 209.337 445.896C209.652 446.367 208.544 443.652 208.093 442.889ZM209.816 440.675C209.293 440.021 210.77 443.553 211.354 444.238C212.067 445.074 209.913 440.804 209.816 440.675ZM201.964 424.904C202.02 424.529 203.376 427.533 203.437 427.617C203.522 427.731 204.275 427.932 204.427 428.198C204.68 428.644 208.471 436.553 209.213 437.755C206.74 434.771 207.563 434.802 207.418 434.509C207.103 433.874 206.167 432.5 205.63 431.275C206.194 432.703 206.757 434.132 207.319 435.561C206.737 434.5 201.924 425.17 201.964 424.904ZM200.33 421.456C200.682 422.156 201.551 423.64 201.771 424.206C202.39 425.799 200.382 422.088 200.33 421.456ZM199.272 421.928C198.38 420.626 200.667 425.352 200.096 423.627C200.072 423.557 199.311 421.986 199.272 421.928ZM198.31 417.609C198.875 418.279 199.884 420.44 199.376 419.899C199.322 419.837 198.311 417.998 198.31 417.609ZM195.943 413.246C195.54 412.693 194.975 410.883 195.627 411.803C195.941 412.387 195.99 413.306 195.943 413.246ZM195.521 410.985C195.002 410.156 192.862 405.728 193.921 407.51C194.01 407.663 195.659 410.939 195.521 410.985ZM193.184 407.568C192.902 407.109 191.269 403.708 191.914 404.568C192.558 405.429 193.589 408.224 193.184 407.568ZM191.203 402.715C190.559 400.708 192.337 404.599 192.972 405.958C192.859 406.098 191.251 402.86 191.203 402.715ZM185.021 391.319C185.281 392.509 188.604 399.097 188.378 398.06C188.192 397.221 185.713 392.345 185.021 391.319ZM180.729 383.005C181.122 383.755 182.076 385.986 182.154 385.772C181.619 384.556 181.126 383.306 180.729 383.005ZM181.819 381.996C181.392 381.246 181.099 381.117 180.972 380.733C180.928 380.603 181.098 380.493 180.944 380.05C181.236 380.698 181.528 381.348 181.819 381.996ZM179.292 376.369C179.293 376.371 179.293 376.373 179.294 376.375C179.766 377.424 180.237 378.474 180.709 379.523C180.132 378.367 178.905 376.249 179.292 376.369ZM177.079 371.83C179.898 376.415 177.706 374.247 177.381 373.346C177.335 373.219 177.012 371.722 177.079 371.83ZM175.794 370.795C174.985 369.34 173.809 366.509 174.569 367.738C174.736 368.01 175.85 370.674 175.794 370.795ZM173.14 364.966C172.69 364.169 171.44 361.382 172.135 362.545C172.434 363.046 173.176 364.734 173.14 364.966ZM183.107 347.544C182.756 346.308 185.729 352.066 185.705 352.694C185.268 351.957 183.16 347.708 183.107 347.544ZM162.448 343.728C161.454 342.11 164.291 347.995 163.543 345.995C163.503 345.891 162.502 343.818 162.448 343.728ZM179.132 340.455C180.059 342.29 180.411 344.537 179.325 342.221C179.211 341.974 178.933 340.292 179.132 340.455ZM155.631 329.43C155.65 329.739 157.225 333.409 157.481 333.509C157.833 333.637 155.975 330.104 155.631 329.43ZM173.876 331.264C173.915 331.31 174.779 332.78 174.811 332.855C175.557 334.657 173.492 331.031 173.876 331.264ZM165.75 314.193C165.561 313.984 169.866 322.505 170.072 322.818C170.203 323.015 170.532 322.742 170.683 322.938C170.763 323.048 172.413 326.507 172.681 326.932C172.758 327.055 172.821 327.148 172.868 327.215C172.479 326.76 174.11 329.828 174.196 329.672C174.22 329.591 173.073 327.494 173.021 327.418C173 327.387 172.98 327.36 172.962 327.335C173.337 327.699 169.54 320.538 170.568 321.98C169.583 319.846 170.416 322.427 169.702 320.812C169.459 320.26 169.619 319.54 167.923 316.858C167.922 316.856 167.921 316.854 167.92 316.852C167.425 316.068 167.812 317.045 167.697 316.917C167.648 316.863 166.098 314.434 167.18 316.562C168.83 319.811 167.657 316.707 168.57 318.424C168.684 318.636 170.168 321.997 170.019 321.839C169.998 321.812 169.534 320.818 169.428 320.667C169.027 320.098 169.048 320.458 168.997 320.378C168.833 320.104 166.342 314.845 165.75 314.193ZM151.663 319.744C149.188 315.177 160.107 337.94 154.191 324.54C154.41 325.201 154.629 325.862 154.847 326.522C153.987 324.869 153.033 322.783 153.142 322.688C153.105 322.662 153.046 322.591 152.961 322.466C152.874 322.337 152.077 320.507 151.663 319.744ZM170.684 324.995C171.716 326.375 173.041 328.949 172.386 328.477C170.921 325.633 172.858 328.682 170.684 324.995ZM165.417 315.87C164.758 314.266 166.79 317.731 167.023 318.447C167.138 318.802 165.706 316.576 165.417 315.87ZM157.927 298.116C157.286 297.025 156.428 295.892 156.702 296.521C156.769 296.675 158.105 298.882 158.693 300.026C160.428 303.405 159.785 302.655 159.884 302.854C159.994 303.075 161.247 305.12 161.852 306.277C163.37 309.188 163.947 310.576 166.204 314.462C165.127 312.107 166.077 313.217 164.642 310.712C164.717 310.945 164.793 311.179 164.868 311.412C163.035 307.729 160.631 303.622 158.417 299.431C157.855 298.368 158.726 299.479 157.927 298.116ZM155.189 295.995C154.712 295.208 153.341 292.453 154.074 293.638C154.187 293.822 155.315 296.029 155.189 295.995ZM143.52 273.274C143.656 273.272 144.931 275.816 144.684 275.517C144.6 275.416 143.414 273.287 143.52 273.274ZM126.434 267.188C126.641 267.827 128.217 271.219 128.605 271.767C127.988 270.336 127.127 268.663 126.434 267.188ZM124.881 263.574C124.883 263.795 126.247 266.687 126.508 267.013C126.158 266.139 125.372 264.627 124.881 263.574ZM138.347 261.595C137.458 260.352 141.071 266.935 139.562 263.793C139.494 263.65 138.39 261.656 138.347 261.595ZM136.727 257.873C135.818 256.557 138.904 262.048 139.061 262.441C139.437 262.696 136.953 258.201 136.727 257.873ZM122.533 233.371C123.029 234.365 124.407 236.896 124.558 237.39C123.943 236.177 122.196 233.133 122.533 233.371ZM124.958 235.761C117.081 220.58 118.486 224.091 125.35 236.703C125.472 236.665 125.454 236.717 124.958 235.761ZM107.763 227.384C107.625 227.327 110.482 233.77 110.619 234.009C111.557 235.591 108.533 228.759 107.763 227.384ZM104.345 220.915C105.473 223.759 107.189 227.339 104.709 222.543C108.034 229.703 106.81 226.647 106.957 226.923C107.132 227.253 107.588 228.374 107.711 228.586C110.6 233.562 105.632 223.788 104.345 220.915ZM106.094 224.021C105.825 223.371 105.022 221.944 105.206 222.495C105.441 223.203 106.16 224.186 106.094 224.021ZM116.105 221.488C115.849 220.995 115.988 220.976 116.024 221.033C117.174 222.859 116.833 222.886 116.105 221.488ZM103.821 220.362C103.083 218.798 103.7 220.598 104.162 221.398C104.333 221.694 104.007 220.756 103.821 220.362ZM114.542 218.245C114.893 218.953 115.691 220.292 115.747 220.41C116.288 221.562 115.069 219.721 114.542 218.245ZM114.681 216.416C114.869 217.017 115.808 218.718 116.431 219.873C116.392 219.625 115.105 217.262 114.681 216.416ZM99.6035 211.525C100.003 212.735 102.11 216.91 101.253 214.875C101.122 214.567 99.9738 212.347 99.6035 211.525ZM113.079 215.391C112.54 214.581 112.103 213.243 112.593 213.987C113.02 214.769 113.135 215.473 113.079 215.391ZM110.502 208.622C110.192 208.407 112.207 211.934 112.847 213.189C113.16 213.401 111.142 209.878 110.502 208.622ZM96.9629 205.578C93.0634 197.524 96.6629 205.044 97.5664 207.043C97.9094 207.802 97.5195 207.217 97.8271 207.906C97.8281 207.908 97.8292 207.91 97.8301 207.911C100.261 213.363 100.228 211.802 96.7256 204.884C96.8045 205.115 96.8841 205.347 96.9629 205.578ZM94.5859 200.209C94.6421 200.51 95.7896 202.896 96.1816 203.744C96.0116 203.134 95.154 201.392 94.5859 200.209ZM106.111 199.974C105.113 198.357 108.204 204.117 107.304 202.192C107.258 202.097 106.166 200.065 106.111 199.974ZM93.4053 198.544C93.2114 198.173 92.3896 196.859 93.1055 198.471C93.2844 198.328 94.523 200.752 94.9014 202.052C95.4307 202.734 94.2596 200.179 93.4053 198.544ZM101.04 192.14C101.094 191.967 103.107 195.948 102.191 194.439C101.962 194.061 101.024 192.201 101.04 192.14ZM99.2529 187.103C99.5156 187.815 100.95 190.428 101.61 191.669C101.294 190.813 100.03 188.566 99.2529 187.103ZM86.8809 184.535C86.5162 183.842 83.6337 177.683 84.7549 179.803C84.8924 180.065 88.0856 186.819 86.8809 184.535ZM81.1514 172.665C81.5242 173.43 82.4326 175.35 82.4814 175.59C82.5404 175.885 81.2387 173.056 81.1514 172.665ZM90.8115 171.896C90.8137 172.066 92.1341 174.419 92.5811 175.29C92.5784 175.116 91.2581 172.766 90.8115 171.896ZM79.583 168.117C79.4495 167.837 76.4789 161.919 79.2119 167.097C79.357 167.37 81.0394 171.136 80.2295 169.637C79.6682 168.596 79.7015 168.368 79.583 168.117ZM76.5752 162.781C76.236 162.017 71.4195 151.967 72.543 154.064C72.7278 154.414 76.9709 163.238 76.5752 162.781ZM75.1758 160.151C74.8197 159.508 74.1587 157.856 74.6846 158.803C75.0988 159.657 75.255 160.294 75.1758 160.151ZM62.5713 132.471C62.6921 132.672 64.7193 136.808 64.8398 137.056C67.083 141.697 71.0415 150.041 73.3525 154.921C73.9453 156.172 73.6016 155.593 73.8545 156.133C74.0545 156.56 73.919 156.002 74.5557 157.448C74.8578 158.136 73.7608 156.105 73.96 156.582C74.0882 156.889 74.8462 158.383 75.04 158.885C75.093 159.027 74.2584 157.534 74.0518 157.083C73.758 156.444 74.1306 157.019 73.8037 156.325C72.7175 154.021 71.696 152.007 70.6787 149.847C70.5868 149.651 71.3564 151.136 70.5703 149.473C70.4485 149.215 69.6382 147.711 68.7119 145.715C66.8823 141.198 65.1194 138.09 62.5713 132.471ZM81.2559 154.251C82.5385 156.957 76.6115 145.864 78.2812 148.723C78.4031 148.933 81.1401 154.01 81.2559 154.251ZM72.0967 153.425C71.7723 152.723 71.3679 151.534 72.0049 152.856C72.0925 153.136 72.7989 154.94 72.0967 153.425ZM70.876 150.854C70.1044 149.221 68.1881 145.16 69.6074 147.901C69.8841 148.435 70.5485 149.878 70.9141 150.636C69.6693 148.263 71.0321 150.899 70.876 150.854ZM68.2285 144.77C68.4963 145.336 69.5662 147.643 69.5713 147.701C69.5812 147.884 68.2879 145.046 68.2285 144.77ZM74.7002 142.304C75.219 143.246 77.3411 147.301 76.4561 145.752C76.3184 145.511 74.6925 142.414 74.7002 142.304ZM62.8643 133.769C62.7932 133.624 61.7393 131.558 61.9463 132.065C65.7131 140.256 66.4772 141.18 62.8643 133.769ZM52.8379 100.41C55.1499 104.691 57.2617 108.819 59.4971 113.111C58.9645 111.793 62.7122 119.461 60.5361 114.969C61.5787 117.022 70.8009 134.627 71.6201 136.104C71.6209 136.106 71.6213 136.108 71.6221 136.109C71.8734 136.561 72.0272 136.197 70.9238 134.358C70.7796 134.117 71.3196 135.311 71.1973 135.119C71.1247 135.005 68.9228 130.913 68.8271 130.716C68.7271 130.509 68.9372 130.706 68.8379 130.495C68.7246 130.256 67.3161 127.761 66.6172 126.436C65.3 123.938 65.223 123.634 65.1152 123.43C64.8007 122.833 64.2263 121.852 63.5889 120.642C60.3767 114.54 55.4991 105.19 52.8379 100.41ZM60.1338 127.225C59.6373 126.244 59.0175 124.741 59.7451 126.226C60.3863 127.533 60.1756 127.305 60.1338 127.225ZM50.6357 106.947C50.432 106.423 51.6546 108.976 51.9932 109.742C52.0573 109.997 50.6665 107.025 50.6357 106.947ZM50.0928 106.119C50.4008 106.779 51.3846 108.807 51.4434 108.988C51.5153 109.216 50.1113 106.284 50.0928 106.119ZM43.0166 90.6758C42.3952 89.487 40.7547 85.6698 41.0967 86.3545C41.5406 87.2375 42.8445 90.1042 43.0928 90.7471C43.1565 90.8582 43.3154 91.1639 43.5996 91.7256C43.5989 91.7239 43.5994 91.7214 43.5986 91.7197C43.985 92.4837 54.9333 115.454 47.5068 100.084C47.275 99.6037 47.6324 100.239 46.6914 98.2793C46.6292 98.1501 46.5627 98.1024 46.3711 97.7031C45.9287 96.7821 43.5743 91.8785 43.1318 90.876C43.1214 90.8701 43.0859 90.8079 43.0166 90.6758ZM40.8652 86.4639C40.9809 86.7901 42.9235 90.8127 43.0283 90.9688C42.285 89.3922 41.5654 87.9034 40.8652 86.4639ZM43.0928 90.7471C43.0367 90.6492 43.056 90.7041 43.1318 90.876C43.1409 90.88 43.1259 90.8326 43.0928 90.7471ZM39.7344 83.5488C39.7811 83.6412 41.0315 86.2238 40.8252 85.8916C40.5208 85.3995 39.3649 82.8244 39.7344 83.5488ZM37.3066 78.7012C37.1909 78.4752 36.6691 77.8258 37.8809 80.2197C38.0987 80.6482 37.3333 78.9216 38.7529 81.8672C37.7045 79.6606 38.0098 80.0837 37.3066 78.7012ZM40.1436 76.376C39.8312 75.8943 41.8381 79.6657 41.9209 79.8145C42.5594 80.958 40.7268 77.4061 40.1436 76.376ZM37.8867 72.6016C36.8001 70.4275 40.3443 77.1904 40.5146 77.542C40.3742 77.3372 37.9961 72.8207 37.8867 72.6016ZM34.3711 72.8574C34.3484 72.8706 35.6264 75.589 35.7305 75.7998C36.4364 77.2281 34.852 73.8474 34.3711 72.8574ZM31.7295 60.8447C31.8264 61.0266 33.7663 64.7143 33.7842 64.7998C33.4954 64.2663 30.671 58.8628 31.7295 60.8447ZM28.998 61.6641C30.2305 64.3938 29.4761 62.5925 29.5176 62.6719C29.6132 62.8591 30.4831 64.799 30.3184 64.3496C30.3195 64.3521 30.3211 64.355 30.3223 64.3574C29.2096 61.8401 28.9003 61.4488 28.998 61.6641ZM31.3164 60.5898C31.7616 61.4605 33.0183 63.8377 33.0654 63.9912C32.6191 63.119 31.3629 60.7395 31.3164 60.5898ZM33.1768 63.5498C31.921 61.3059 28.4662 54.3868 30.791 58.8887C30.8356 58.9756 30.3481 58.1296 31.2598 59.8643C31.336 60.0091 31.5215 60.262 32.6465 62.4521C32.8749 62.897 33.2038 63.5968 33.1768 63.5498ZM26.9355 56.7041C26.7657 56.3701 27.2347 57.4232 27.498 57.9697C27.969 58.9452 27.4773 57.7676 26.9355 56.7041ZM22.3994 43.0596C22.6771 43.5794 28.1144 54.0665 28.8672 55.543C28.1017 54.1124 22.7028 43.7159 22.4629 43.2393C22.3933 43.1005 22.3645 42.9944 22.3994 43.0596ZM24.5146 46.6982C24.9859 47.6546 26.394 50.3226 27.1943 51.8594C27.3127 52.001 25.0838 47.7971 24.5146 46.6982ZM24.7969 48.3506C25.2946 49.2442 25.7494 50.3203 24.9932 48.8477C24.7692 48.4108 24.7444 48.2572 24.7969 48.3506ZM18.4629 39.2793C18.4998 39.3553 18.5273 39.412 18.5469 39.4512C18.8418 40.1257 22.3 47.4353 22.5039 47.8506C23.5577 50.0074 18.8517 40.0567 18.708 39.7607C18.6346 39.611 18.5851 39.5125 18.5566 39.457C18.3926 39.0869 17.5084 37.2042 17.3857 36.9932C17.6531 37.5578 18.3765 39.1015 18.4629 39.2793ZM21.2041 44.6279C21.4945 45.3051 21.6963 45.7408 22.5918 47.6104C21.2832 44.8339 22.5273 47.3928 21.2041 44.6279ZM21.8213 42.4238C21.781 42.3426 22.0181 42.7278 22.0654 42.8164C23.0786 44.721 22.5311 43.8552 21.8213 42.4238ZM22.332 42.8291C21.7874 41.68 19.0415 36.4881 20.8799 40.0605C21.0554 40.4023 21.8257 41.8351 22.332 42.8291ZM19.7031 38.5869C20.1596 39.4727 21.5176 42.1073 21.7266 42.5586C21.2348 41.5886 19.8785 38.9699 19.7031 38.5869ZM15.0547 28.9229C15.8133 30.4441 16.4656 31.6504 17.5186 33.6768C17.8019 34.2226 17.7142 34.0858 17.7441 34.1436C18.2353 35.0901 17.8829 34.3747 18.1865 34.958C18.3808 35.3289 22.3418 43.0002 21.7969 41.8838C21.4069 41.0865 15.9308 30.6091 15.0547 28.9229ZM17.3398 33.5615C16.3338 31.7325 18.3402 35.5969 19.0645 36.8867C19.3318 37.4316 19.5998 37.977 19.8662 38.5225C20.3989 39.3755 20.4613 39.784 21.4268 41.502C22.5344 43.8777 18.1042 35.0672 17.4902 34.0381C22.3923 43.5628 14.1938 27.7744 17.708 34.377C14.8543 28.9174 16.7936 32.576 16.3701 31.7256C15.9725 30.9295 14.6916 28.4671 14.4434 27.96L14.4082 27.8789C15.3853 29.7728 16.3633 31.6673 17.3398 33.5615ZM20.7783 40.5723C21.5108 41.9466 21.6141 42.3114 20.8164 40.7031C20.7854 40.6404 20.7511 40.5221 20.7783 40.5723ZM16.8564 35.501C17.1889 36.1948 18.1853 38.2853 18.1904 38.2637C17.6967 37.2253 17.0003 35.7633 16.8564 35.501ZM13.832 29.3906C13.8766 29.498 15.1764 32.3339 15.7842 33.6094C16.9794 36.1091 13.8974 29.5205 13.832 29.3906ZM14.2979 27.8213C14.398 28.0134 16.5063 32.1317 16.3604 31.8721C16.0712 31.323 13.0748 25.469 14.2979 27.8213ZM12.0654 23.3398C12.2603 23.7119 13.9913 27.053 14.127 27.3467C13.2927 25.7698 11.627 22.5022 12.0654 23.3398ZM10.4541 20.3174C10.8298 21.0443 11.1861 21.755 11.5059 22.375C11.7419 22.8322 11.7751 22.8907 11.7461 22.8271L11.6143 22.5527C12.2911 23.85 13.1244 25.5391 11.6943 22.7627C12.1918 23.7404 12.689 24.719 13.1855 25.6973C11.3035 22.0646 11.4753 22.313 10.9365 21.2695C10.1838 19.8111 10.2193 19.938 10.3613 20.2354C9.76389 19.0294 7.15176 13.9426 5.64453 11.001C6.97382 13.5838 9.13788 17.771 10.4541 20.3174ZM8.46875 16.5996C10.8592 21.3032 9.97812 19.5243 10.4131 20.3574C11.3384 22.126 10.963 21.5294 10.8477 21.3076C10.3732 20.3952 8.79303 17.2429 8.46875 16.5996ZM7.28027 15.3184C7.85617 16.55 9.18671 19.3551 10.0391 21.1445C10.0459 21.1219 7.82266 16.4667 7.28027 15.3184ZM8.08301 15.5547C9.17807 17.6514 11.5743 22.3004 10.6035 20.374C10.1152 19.4072 9.7742 18.7867 9.71094 18.665C9.09073 17.4769 7.81158 15.0113 8.08301 15.5547ZM9.62891 18.4238C9.45374 18.0971 9.76434 18.7157 10.2754 19.6963C10.4649 20.0446 10.0382 19.1861 9.62891 18.4238ZM4.8584 9.39258C6.09183 11.7763 7.28494 14.1088 7.45312 14.4385C7.67828 14.873 7.33649 14.1865 7.3877 14.2852C7.50861 14.5175 9.89954 19.145 10.0156 19.3721C10.0974 19.5326 9.64691 18.7038 10.1338 19.6631C9.18158 17.7895 4.80569 9.32162 4.57715 8.87402C4.40186 8.53303 5.73697 11.0964 3.65039 7.06934L4.8584 9.39258ZM8.02148 15.5312C7.41742 14.3762 9.09097 17.6243 9.5 18.4102C10.4079 20.1528 8.10077 15.6828 8.02148 15.5312ZM6.4248 12.3018C6.56741 12.5758 9.95148 19.0729 9.32129 17.832C8.8905 16.9864 5.5455 10.6085 6.4248 12.3018Z" fill="black"/>
</svg>
